<?xml version="1.0" encoding="utf-8"?>
<!-- Generator: Adobe Illustrator 26.3.1, SVG Export Plug-In . SVG Version: 6.00 Build 0)  -->
<svg version="1.1" id="Layer_1" xmlns:serif="http://www.serif.com/"
	 xmlns="http://www.w3.org/2000/svg" xmlns:xlink="http://www.w3.org/1999/xlink" x="0px" y="0px" viewBox="0 0 194 173"
	 style="enable-background:new 0 0 194 173;" xml:space="preserve">
<style type="text/css">
	.st0{fill:#FFFFFF;}
</style>
<g transform="matrix(1,0,0,1,-2645.23,-22.8406)">
	<g transform="matrix(1,0,0,1,1462.08,-5.72875e-13)">
		<g transform="matrix(0.0357367,0,0,0.0357367,1183.15,22.8406)">
			<path class="st0" d="M4977.6,2838.7L5423,879.2c32.2-141.5-75.4-276.2-220.5-276.2H1502.1l-86.4-422.2
				C1394.2,75.6,1301.6,0,1194.2,0H228.3C103.4,0,2.2,101.2,2.2,226.1v150.7c0,124.9,101.2,226.1,226.1,226.1h658.4l661.8,3235.5
				c-158.3,91.1-265,261.8-265,457.5c0,291.4,236.2,527.6,527.6,527.6s527.6-236.2,527.6-527.6c0-147.7-60.7-281.1-158.5-376.8
				h1975.1c-97.8,95.8-158.5,229.2-158.5,376.8c0,291.4,236.2,527.6,527.6,527.6c291.4,0,527.6-236.2,527.6-527.6
				c0-208.9-121.4-389.4-297.5-474.9l52-228.7c32.2-141.5-75.4-276.2-220.5-276.2H2057.1l-61.7-301.5h2761.7
				C4862.7,3014.7,4954.2,2941.7,4977.6,2838.7z"/>
		</g>
	</g>
</g>
</svg>
