<?xml version="1.0" encoding="utf-8"?>
<!-- Generator: Adobe Illustrator 26.3.1, SVG Export Plug-In . SVG Version: 6.00 Build 0)  -->
<svg version="1.1" id="Layer_1" xmlns:serif="http://www.serif.com/"
	 xmlns="http://www.w3.org/2000/svg" xmlns:xlink="http://www.w3.org/1999/xlink" x="0px" y="0px" viewBox="0 0 157 157"
	 style="enable-background:new 0 0 157 157;" xml:space="preserve">
<style type="text/css">
	.st0{fill:#FFFFFF;}
</style>
<g transform="matrix(1,0,0,1,-1111.24,-105.745)">
	<g transform="matrix(0.0136842,0,0,0.0136842,1111.24,105.745)">
		<path class="st0" d="M11283.8,9913.5L9053,7682.7c-100.7-100.7-237.2-156.6-380.4-156.6h-364.7
			c617.6-789.8,984.5-1783.3,984.5-2864C9292.4,2091.1,7209.2,8,4638.3,8S-15.8,2091.1-15.8,4662.1s2083.1,4654.1,4654.1,4654.1
			c1080.7,0,2074.2-367,2864-984.5v364.7c0,143.2,55.9,279.7,156.6,380.4l2230.8,2230.8c210.3,210.3,550.4,210.3,758.5,0
			l633.2-633.2C11491.9,10464,11491.9,10123.9,11283.8,9913.5z M4638.3,7526.1c-1581.9,0-2864-1279.9-2864-2864
			c0-1581.9,1279.9-2864,2864-2864c1581.9,0,2864,1279.9,2864,2864C7502.3,6244,6222.5,7526.1,4638.3,7526.1z"/>
	</g>
</g>
</svg>
