<?xml version="1.0" encoding="utf-8"?>
<!-- Generator: Adobe Illustrator 26.3.1, SVG Export Plug-In . SVG Version: 6.00 Build 0)  -->
<svg version="1.1" id="Layer_1" xmlns="http://www.w3.org/2000/svg" xmlns:xlink="http://www.w3.org/1999/xlink" x="0px" y="0px"
	 viewBox="0 0 175 85" style="enable-background:new 0 0 175 85;" xml:space="preserve">
<style type="text/css">
	.st0{fill:#FFFFFF;}
	.st1{fill:#EC2227;}
</style>
<g>
	<g>
		<path class="st0" d="M17.2,2.5L14,13.9h-2.9L9.3,7.5l-1.8,6.4H4.5L1.3,2.5h2.9l2,7.8l2.1-7.8h2l2.1,7.8l1.9-7.8H17.2z"/>
		<path class="st0" d="M20.8,2.5v11.4h-2.6V2.5H20.8z"/>
		<path class="st0" d="M25.6,2.5l4.6,7.1V2.5h2.6v11.4h-2.6l-4.6-7.1v7.1H23V2.5H25.6z"/>
		<path class="st0" d="M41.7,2.5v2.3H39v9.1h-2.6V4.8h-2.7V2.5L41.7,2.5L41.7,2.5z"/>
		<path class="st0" d="M49.7,2.5v2.3h-3.9V7h3.8v2.3h-3.8v2.3h3.9v2.3h-6.5V2.5H49.7z"/>
		<path class="st0" d="M55.9,2.5c2.2,0,3.9,1.2,3.9,3.5c0,1.8-1,3-2.4,3.5l3.7,4.5h-3.3l-3.3-4.2h-0.2v4.2h-2.6V2.5H55.9z M54.3,7.6
			h0.7c1,0,2-0.3,2-1.5s-1-1.5-2-1.5h-0.7V7.6z"/>
		<path class="st0" d="M64.8,2.5v11.4h-2.6V2.5H64.8z"/>
		<path class="st0" d="M69.6,2.5l4.6,7.1V2.5h2.6v11.4h-2.6l-4.6-7.1v7.1H67V2.5H69.6z"/>
		<path class="st0" d="M84,2.3c2,0,3.4,0.8,4.4,1.9l-1.7,1.9C86,5,85.2,4.6,84.2,4.6c-1.6,0-2.9,1.6-2.9,3.6c0,1.9,1.3,3.5,2.9,3.5
			c1.2,0,2.5-0.8,2.5-2.1V9.6H84v-2h5.3v2c0,2.1-1.9,4.6-5.3,4.6c-3.1,0-5.6-2.7-5.6-5.9C78.5,4.9,80.8,2.3,84,2.3z"/>
		<path class="st0" d="M99.5,2.5c2.2,0,3.9,1.2,3.9,3.5s-1.7,3.7-3.9,3.7h-1.5v4.2h-2.6V2.5H99.5z M97.9,7.6h0.7c1,0,2-0.3,2-1.5
			s-1-1.5-2-1.5h-0.7V7.6z"/>
		<path class="st0" d="M110,2.5l4.6,11.4h-2.8l-0.8-2.3h-4.3l-0.8,2.3H103l4.6-11.4C107.6,2.5,110,2.5,110,2.5z M107.5,9.3h2.6
			L108.8,6L107.5,9.3z"/>
		<path class="st0" d="M119.8,2.5c2.2,0,3.9,1.2,3.9,3.5c0,1.8-1,3-2.4,3.5l3.7,4.5h-3.3l-3.3-4.2h-0.2v4.2h-2.6V2.5H119.8z
			 M118.2,7.6h0.7c1,0,2-0.3,2-1.5s-1-1.5-2-1.5h-0.7V7.6z"/>
		<path class="st0" d="M132.8,2.5v2.3h-2.7v9.1h-2.6V4.8h-2.7V2.5L132.8,2.5L132.8,2.5z"/>
		<path class="st0" d="M136.9,2.5l4.6,7.1V2.5h2.6v11.4h-2.6l-4.6-7.1v7.1h-2.6V2.5H136.9z"/>
		<path class="st0" d="M152.8,2.5v2.3h-3.9V7h3.8v2.3h-3.8v2.3h3.9v2.3h-6.5V2.5H152.8z"/>
		<path class="st0" d="M159,2.5c2.2,0,3.9,1.2,3.9,3.5c0,1.8-1,3-2.4,3.5l3.7,4.5H161l-3.3-4.2h-0.2v4.2h-2.6V2.5H159z M157.5,7.6
			h0.7c1,0,2-0.3,2-1.5s-1-1.5-2-1.5h-0.7V7.6z"/>
		<path class="st0" d="M169.5,2.3c2.1,0,3.5,1.1,3.5,1.1l-1,2.1c0,0-1.1-0.8-2.3-0.8c-0.9,0-1.3,0.4-1.3,1c0,0.6,1.1,1.1,2.4,1.7
			c1.3,0.5,2.7,1.6,2.7,3.1c0,2.7-2.1,3.7-4.3,3.7c-2.7,0-4.3-1.5-4.3-1.5l1.3-2.2c0,0,1.5,1.3,2.8,1.3c0.6,0,1.7-0.1,1.7-1.1
			c0-0.8-1.2-1.2-2.6-1.9s-2.2-1.7-2.2-2.9C165.8,3.7,167.7,2.3,169.5,2.3z"/>
	</g>
</g>
<g>
	<g>
		<path class="st0" d="M117.9,32.1c0.8,0.7,1.7,1,2.7,1c0.2,0,0.4,0,0.6-0.1c3.6-0.6,6.6-6.9,6.6-9.9c0-1.2-0.6-2.4-1.5-3.2
			c-1.5-1.3-3.8-1.7-5.2-1.4c-2.5,0.4-5.1,3.2-5.1,8.6C115.9,29.2,116.6,31,117.9,32.1z"/>
		<path class="st0" d="M169.8,32.7c-0.8-0.8-2-1.1-3.1-0.8l-1.1,0.3l-0.3,1.1c-0.3,1.1-0.8,2.4-1.4,3.8c0.2-1.5,0.3-2.6,0.3-3.1
			v-0.3l-0.1-0.2c-0.3-0.8-0.8-1.4-1.4-1.9c0.1-1-0.1-2-0.8-2.9c-1.9-2.6-6.8-3.8-9.1-3.5c-3.6,0.6-6.2,3.8-7.8,7.7
			c-0.2-0.7-0.7-1.4-1.5-2.1c-1.3-1.1-4.3-2.9-7-2.4c-0.6,0.1-1.6,0.3-3.9,3.8c-2.3-1.3-5.1-1-5.9-0.9c-1.2,0.2-1.9,1.1-2.6,3.7
			l-0.5-0.3c-1.5-0.8-4.7-1.2-5.9-1c-0.6,0.1-2,0.3-3.2,3.9c-0.4-0.5-1.2-1.1-2.6-1.8c-1.2-0.6-2.8-1.2-4-1l-0.3,0.1l0.9-0.8
			l-1.1-1.5c-1.2-1.7-3.6-2.6-5.7-2.2c-2.8,0.5-4.3,4.2-4.6,6.6c-0.9-1.3-2.2-2-3.9-2.2l-0.3,0l-0.3,0c-0.8,0.1-1.8,0.7-2.5,1.4
			c-0.4,0-0.8,0-1.1,0.1c-2.7,0.4-5.1,3.2-6.8,6.7c-0.3-0.8-1-1.3-1.4-1.7c-1.5-1.2-4.7-2.9-7-2.6c-0.5,0.1-1.3,0.2-3.1,2.5
			c1.1-4.7,2.2-8.7,2.7-9.5l0.7-1.1l-0.8-1.1c-1.2-1.7-5.1-2.5-7-2.2c-1.5,0.3-2.2,1.8-3.1,4.7c-0.6,1.9-1.2,4.6-1.8,7.7
			c-0.1,0.6-0.2,1.2-0.4,1.8c-0.4-0.2-0.9-0.4-1.3-0.4c0.4-1.5,0.8-2.5,1-2.8l0.6-1.2l-0.8-1c-1.6-1.9-5.2-1.9-6.8-1.7
			c-1.4,0.2-2.1,1.5-2.9,4.1c-0.4,1.3-0.9,3.1-1.4,5.3c-0.5,0.1-0.7,0.1-0.8,0.1l-1.2-0.4l-0.8,1.1c-0.8,1-1,3.2-0.1,4.7
			c0.2,0.4,0.7,1,1.5,1.4c-0.1,0.4-0.1,0.8-0.2,1.2c-0.4-0.7-1-1.3-1.7-1.7c0-0.8-0.3-1.7-0.8-2.4c-1.9-2.6-6.8-3.8-9.1-3.5
			c-3.4,0.6-6.3,3.7-8.3,8.8c-0.3,0.7-0.5,1.5-0.7,2.3c-1.1-0.7-2.8-0.8-4.2-0.8H23H23c-1.2,0-2.1,0.2-2.2,0.2l-1.3,0.2l-0.3,1.3
			c0,0.1-0.3,1.3-0.7,3.2c-2.7,7.2-5.3,10-6.8,10.2c-0.1,0-0.1,0-0.2,0c-0.1,0-0.1,0-0.1,0c0,0-0.8-0.6-0.8-4.3
			c0-7.3,3.4-18.2,7.8-22c0.6-0.6,1.3-0.9,1.9-1.1c0,0.4,0.1,0.7,0.1,1c0,2.6-1.1,4.7-1.7,5.1l-1.2,1l0.7,1.4c0.6,1.3,2.6,2.3,4.3,2
			c3.3-0.6,6.8-6.5,6.8-11.5c0-2.4-1-3.8-1.8-4.5c-1.7-1.4-3.8-1.3-4.9-1.1l-0.1,0c-1.2-0.4-3.1-0.8-5.9-0.3
			C8.1,37.2,1.4,52.8,1.4,65.3c0,5.6,2.1,8.6,3.9,10.1c2,1.7,4.7,2.5,7.4,2c1.2-0.2,2.4-0.8,3.5-1.9c-0.1,1-0.1,1.9-0.1,2.7
			c0,1.5,0.8,2.5,1.3,3c0.9,0.8,2.1,1,3.3,1c0.7,0,1.3-0.1,1.9-0.2c0.7-0.1,1.9-0.3,2.5-1.3l0.3-0.5l-0.1-0.6
			c-0.1-1.3,0.3-7.2,1-12.6c0.6,2.2,1.8,3.5,2.8,4.2c1.2,0.8,2.5,1.3,3.9,1.3c0.3,0,0.6,0,0.9-0.1c2.5-0.4,4.1-2.3,5.3-4.5
			c0.1,0.1,0.3,0.3,0.4,0.4c1.4,1.1,3.2,1.5,5.1,1.1c1.5-0.3,2.8-1.1,4.1-2.6c1.5,1.7,3.9,2.4,6.6,2c2.2-0.4,4.3-2,6.2-5
			c0.4,0.3,0.9,0.6,1.3,0.8l1.5,0.6c0.8,0.2,1.5,0.2,2.3,0.1l1.5-0.3l0.1-1.6c0.1-2.5,0.7-4.8,1.4-7c-0.1,1,0,1.9,0.1,2.7
			c0.2,1.9,1.2,3.6,2.6,4.7c1.5,1.1,3.5,1.6,5.5,1.2c1.7-0.3,3.2-1.4,4.6-3.5c1.8,1.7,4.3,2.5,7.1,2c6.8-1.1,10.8-8.2,12.7-12.9
			c-0.1,1.1-0.1,2-0.1,2.6c0.2,2.4,1.4,3.8,2.3,4.6c1.5,1.2,3.5,1.6,5.6,1.3c1.6-0.3,3.1-1.3,4.5-3.1c1.5,1.3,3.6,1.8,5.4,1.5
			c1.7-0.3,3.2-1.4,4.6-3.4c1.3,0.8,2.9,1.1,4.6,0.8l1.5-0.3l0.1-1.5c0.2-2.4,0.7-4.7,1.3-6.8c0,0.8,0,1.5,0.1,2.1
			c0.2,1.9,1.2,3.6,2.6,4.7c1.2,0.9,2.8,1.4,4.5,1.3c-1.7,1.4-2.5,3.5-2.2,6c0.1,2.1,1.3,4.1,3.2,5.6c2.2,1.7,5,2.5,7.6,2.1
			c4.7-0.8,8.6-5.5,11.7-14.1c4.7-3.4,9.6-13,10.7-19.1C170.7,34,170.4,33.3,169.8,32.7z M145.7,51.9c-0.6,0.1-1.2,0.3-1.7,0.4
			c0.3-0.3,0.6-0.7,0.9-1.1C145.1,51.5,145.4,51.7,145.7,51.9z M154.8,33c-1,3.2-1.9,5.9-2.7,8.1c0.1-0.7,0.3-1.5,0.5-2.3
			c0.7-3,1.5-4.9,2.2-5.9C154.8,32.9,154.8,33,154.8,33z M149.4,57.8c-1.4,3-2.4,3.3-2.5,3.3c0,0-0.2,0-0.4-0.2
			c-0.4-0.3-0.7-1-0.8-1.6c0-0.7,0-0.8,3.4-1.5C149.2,57.8,149.3,57.8,149.4,57.8z M38.4,52.2c-1.1,3.5-2,6.2-2.7,8.1
			c0.1-0.7,0.3-1.5,0.5-2.4c0.7-3.1,1.6-5,2.2-5.9C38.4,52.1,38.4,52.1,38.4,52.2z M57.6,49.5c1.1-0.3,1.8-0.4,2.2-0.4
			c-0.4,2.7-0.7,5.2-0.9,7.1c-1.3,2.6-2.3,4-3,4.8C55.8,59.2,56.2,55.7,57.6,49.5z M113,44.8c-0.1,0.8-0.1,1.6-0.2,2.4
			c-0.4,0.9-0.8,1.6-1.1,2.1C112.1,48,112.5,46.4,113,44.8z M98.3,41.6c0.3,0.3,0.6,0.5,0.9,0.7c0,0,0,0.1,0,0.1
			c-0.4,1.3-0.8,2.6-1,3.2c-1.8,4.8-5,10-7.6,10.4c-0.4,0.1-0.6,0-0.8-0.2c-0.2-0.2-0.4-0.5-0.5-0.8c1.1-0.1,2.2-0.6,3.2-1.3
			C95.9,51.4,98.4,46.2,98.3,41.6C98.3,41.6,98.3,41.6,98.3,41.6z"/>
	</g>
	<g>
		<path class="st1" d="M20,50.2c0.2,0.5,1.3,1,2.2,0.9c2.1-0.4,5.2-5.3,5.2-9.6c0-4.2-3.5-3.8-4.5-3.6l-0.7,0.1
			c-0.6-0.3-2.3-0.9-5.3-0.4c-7,1.2-13.7,15.2-13.7,27.6c0,8.3,5.1,10.9,9,10.2c2.6-0.4,4.9-4,6.7-7.8c-0.6,3.7-1,7.6-1,10.5
			c0.1,2.5,2.9,2.1,4.2,1.9c0.6-0.1,1-0.2,1.2-0.4c-0.2-2.6,1.2-18.4,2.9-22.2c-0.4-0.7-3.6-0.8-5.2-0.5c0,0-0.3,1.3-0.7,3.3
			c-1.6,4.1-4.6,11-8.3,11.6c-2,0.3-3.3-1.2-3.3-6.2c0-10,5.8-26.4,13.4-25.2c0.2,1,0.3,2.2,0.3,3.1C22.4,46.5,21.2,49.2,20,50.2z"
			/>
		<path class="st1" d="M120.9,31.1c2.2-0.4,4.9-5.6,4.9-8c0-2.1-2.9-3-4.5-2.7c-2.5,0.4-3.4,4.1-3.4,6.6
			C117.9,30.1,119.6,31.3,120.9,31.1z"/>
		<path class="st1" d="M167.1,33.8c-1.2,4.1-4.5,11-7.6,14.7c1.9-6.9,2.7-13.5,2.7-14.5c-0.2-0.6-1-1.2-2.1-1.7
			c0.2-0.1,0.3-0.2,0.4-0.4c1.5-2.9-5-5.1-7.5-4.7c-5.2,0.9-8.2,9.9-8.5,16.1c-1.2,2.8-2.7,5.5-3.9,5.7c-2.7,0.4,1.4-13.4,2.4-15.3
			c0-1-3.8-3.7-6.4-3.3c-1.2,0.2-4.8,6.1-7,12c0.8-3.4,1.8-6.8,2.3-8.1c-1.6-1.2-3.9-1.2-5-1c-0.9,0.1-2.6,8.5-2.8,13.6
			c-1.1,2.5-2.4,4.9-3.5,5.1c-0.5,0.1-0.8-0.4-0.8-1.8c0-3.7,2-12.3,2.7-13.7c-1.2-0.6-3.8-0.9-4.6-0.8c-1.7,0.3-2.8,7.4-3.1,12.1
			c-1.3,2.8-2.8,5.7-4.1,5.9c-0.5,0.1-1.2-0.4-1.2-1.8c0-3.7,2.9-11.2,3.6-12.6c-0.2-0.9-3.8-2.6-4.9-2.4c-0.4,0.3-2.8,1.6-4.4,1.9
			c0.6-1.7,1.6-4.5,2-4.9c-0.8-1.1-2.4-1.7-3.8-1.5c-1.8,0.3-3,3.7-3,5.7c0,1.6,0.9,2.7,2.7,3c-0.6,1.9-1.2,4.3-1.5,5.2
			c-1.6,4.4-5.2,11.1-9.1,11.7c-2.6,0.4-3.8-1.9-3.8-4.4v-0.8c4.9,1.7,9.2-5.9,9.2-11.2c0-2.6-1-4.6-3.4-4.8c-0.6,0.1-1.5,0.7-2,1.5
			c-0.6-0.1-1.2-0.2-1.6-0.1c-3.9,0.6-7.6,9-7.6,15.3c0,0.3,0,0.5,0,0.7c-1.2,2.7-2.6,5.1-3.7,5.3C75.2,60.1,79.3,46,80.4,44
			c-0.1-1-4.4-3.6-6.4-3.3c-1.3,0.2-5.6,6.7-7.7,12.9c1-8,4.1-21,5.3-22.9c-0.6-0.9-3.6-1.7-5.1-1.4c-1.7,0.3-5.1,19.5-5.8,27.3
			c-1.7,3.7-3.8,6.6-5.4,6.8c-2.7,0.4-1.3-8.2,0.5-15.6c2.3-0.6,4.5-1,4.7-0.8c0.7-2.1,0.1-4.1-1.3-3.9c-0.5,0.1-1.4,0.3-2.4,0.6
			c0.8-3.1,1.6-5.6,2-6.3c-0.9-1-3.5-1.3-5-1c-0.7,0.1-1.9,4.1-2.9,9c-1.3,0.3-2.5,0.5-2.9,0.4c-0.4,0.5-0.8,3.8,2.1,3.3h0.1
			c-0.6,3.3-1.1,6.6-1.3,9.2c-1.1,2.7-2.6,5.4-3.8,5.6c-1.5,0.3-0.4-5.8,1.2-10.6c-0.4-1-1.5-1.7-2.6-2.1l0.2-0.3
			c1.5-2.9-5-5.1-7.5-4.7c-6.1,1-9.1,13-8.4,18.7c0.5,4.2,3.6,5.6,5.6,5.3c2.7-0.4,4.3-3.7,5.4-7.7c0,0.1,0,0.3,0.1,0.4
			c0.3,2.8,2.2,4.8,5.4,4.3c1.8-0.3,3.3-2.2,4.6-4.4c0.6,2.5,2.6,4.4,6.1,3.8c2.4-0.4,4.5-3.2,6.1-6.3c1,1.5,3.2,3.1,5.3,2.8
			c0.4-7.5,4.3-13.9,6.1-16.8c0.9-1.4,1.5-1.4,1.2-0.1c-0.9,3.1-2.2,8.8-1.9,12.6c0.3,2.8,2.7,4.7,5.8,4.2c1.8-0.3,3.5-2.5,4.8-5.1
			c1.2,2.6,3.5,4.2,7,3.7c9-1.5,12.6-15.8,12.6-15.8c0,0,0,0,0-0.1l1.3-4.6c1-0.1,2.1-0.4,3.5-0.9c-1.6,3.3-2.7,10.6-2.6,12.8
			c0.3,3.6,3.3,4.4,5.6,4c1.8-0.3,3.5-2.4,4.9-4.8c0.7,2.8,3.5,3.4,5,3.2c1.8-0.3,3.3-2.2,4.6-4.6c0.8,1.6,2.6,2.4,4.7,2.1
			c0.5-7.5,4.4-14.6,6.1-17.5c0.9-1.4,1.6-1.4,1.2-0.1c-0.8,3.1-2.4,9.1-2,12.8c0.3,2.8,2.7,4.7,5.9,4.2c1.7-0.3,3.3-2.3,4.5-4.8
			c1,3,3.5,4,5.2,3.7c2.4-0.4,3.9-2.9,5-6.3c-0.4,2.5-1,5.1-1.7,7.5c-6.4,1.7-14.7,1-14,7.7c0.2,3.5,4.6,6.6,8.5,5.9
			c4.7-0.8,8-6.8,10.4-13.4c4.2-2.6,9.3-12.2,10.4-18.3C168.6,34.1,167.9,33.6,167.1,33.8z M91.9,41.3c1.6,1.4-0.2,10-4.5,9.9
			C88,47.1,90.1,42.6,91.9,41.3z M34.2,66.8c-2.4,0.4,0.4-16.7,4.4-17.4c0.9-0.1,1.5,0.8,1.9,2.9C39.1,56.6,36,66.5,34.2,66.8z
			 M147.3,63c-1.9,0.3-3.3-1.8-3.4-3.6c-0.1-3.4,3.2-2.8,8.7-4.2C151.1,59.4,149.4,62.6,147.3,63z M150.7,47.6
			c-2.4,0.4,0.4-16.7,4.4-17.4c0.9-0.1,1.5,0.8,1.8,2.9C155.6,37.3,152.5,47.2,150.7,47.6z"/>
	</g>
</g>
</svg>
